# xmcd
#
# Track frame offsets:
# 150
# 18463
# 34242
# 49219
# 60923
# 75043
# 91659
# 104835
# 118879
# 130892
# 146338
# 160992
# 176775
# 188271
# 203939
# 216827
# 228871
# 243432
# 256767
# 269759
# 284656
# 296777
# 308842
# 319744
# 332889
#
# Disc length: 4623 seconds
#
#
# Revision: 0
# Processed by: cddbd v1.5.2PL0 Copyright (c) Steve Scherf et al.
# Submitted via: FreeRIP 2.945 
#
DISCID=70120d19
DTITLE=Cooper-JF1826 - Last-Mohicans08
DYEAR=1826
DGENRE=Native American
TTITLE0=LM 0801
TTITLE1=LM 0802
TTITLE2=LM 0803
TTITLE3=LM 0804
TTITLE4=LM 0805
TTITLE5=LM 0806
TTITLE6=LM 0807
TTITLE7=LM 0808
TTITLE8=LM 0809
TTITLE9=LM 0810
TTITLE10=LM 0811
TTITLE11=LM 0812
TTITLE12=LM 0813
TTITLE13=LM 0814
TTITLE14=LM 0815
TTITLE15=LM 0816
TTITLE16=LM 0817
TTITLE17=LM 0818
TTITLE18=LM 0819
TTITLE19=LM 0820
TTITLE20=LM 0821
TTITLE21=LM 0822
TTITLE22=LM 0823
TTITLE23=LM 0824
TTITLE24=LM 0825
EXTD=The Last of the Mohicans Tantor Media\nby James Finimore Cooper 12 CDs\nread by William Costello native country
EXTT0=
EXTT1=
EXTT2=
EXTT3=
EXTT4=
EXTT5=
EXTT6=
EXTT7=
EXTT8=
EXTT9=
EXTT10=
EXTT11=
EXTT12=
EXTT13=
EXTT14=
EXTT15=
EXTT16=
EXTT17=
EXTT18=
EXTT19=
EXTT20=
EXTT21=
EXTT22=
EXTT23=
EXTT24=
PLAYORDER=
